<?xml version="1.0" encoding="utf-8"?><svg xmlns="http://www.w3.org/2000/svg" xmlns:xlink="http://www.w3.org/1999/xlink"><symbol fill="none" viewBox="0 0 6 12" id="arrow-right" xmlns="http://www.w3.org/2000/svg"><path d="M5.873 5.67L.735.137a.409.409 0 00-.61 0 .492.492 0 00.002.658L4.959 6 .127 11.206a.492.492 0 00-.001.657A.414.414 0 00.43 12c.11 0 .22-.045.304-.136L5.873 6.33A.484.484 0 006 6a.485.485 0 00-.127-.33z" fill="#000"/></symbol><symbol fill="none" viewBox="0 0 26 26" id="close" xmlns="http://www.w3.org/2000/svg"><path fill-rule="evenodd" clip-rule="evenodd" d="M14.436 13L25.703 1.734A1.016 1.016 0 1024.265.297L13 11.564 1.734.297A1.016 1.016 0 10.297 1.734L11.564 13 .297 24.266a1.016 1.016 0 001.437 1.437L13 14.436l11.266 11.267a1.013 1.013 0 001.437 0 1.016 1.016 0 000-1.437L14.436 13z" fill="#363838"/></symbol><symbol fill="none" viewBox="0 0 16 12" id="email-ico" xmlns="http://www.w3.org/2000/svg"><path d="M14.5 0h-13A1.5 1.5 0 000 1.5v9c0 .844.656 1.5 1.5 1.5h13a1.5 1.5 0 001.5-1.5v-9c0-.813-.688-1.5-1.5-1.5zm0 1.5v1.281c-.719.594-1.844 1.469-4.219 3.344C9.75 6.531 8.72 7.531 8 7.5c-.75.031-1.781-.969-2.313-1.375-2.375-1.875-3.5-2.75-4.187-3.344V1.5h13zm-13 9V4.719c.688.562 1.719 1.375 3.25 2.593C5.438 7.845 6.656 9.033 8 9c1.313.031 2.5-1.156 3.219-1.688A510.233 510.233 0 0114.5 4.72V10.5h-13z" fill="#363838"/></symbol><symbol fill="none" viewBox="0 0 16 16" id="facebook" xmlns="http://www.w3.org/2000/svg"><path d="M15.75 8A7.749 7.749 0 008 .25 7.749 7.749 0 00.25 8c0 3.875 2.813 7.094 6.531 7.656V10.25H4.813V8H6.78V6.312c0-1.937 1.157-3.03 2.907-3.03.874 0 1.75.155 1.75.155v1.907h-.97c-.968 0-1.28.593-1.28 1.218V8h2.156L11 10.25H9.187v5.406A7.74 7.74 0 0015.75 8z" fill="#707070"/></symbol><symbol fill="none" viewBox="0 0 14 15" id="instagram" xmlns="http://www.w3.org/2000/svg"><path d="M7 3.406C5 3.406 3.406 5.031 3.406 7 3.406 9 5 10.594 7 10.594A3.594 3.594 0 0010.594 7c0-1.969-1.625-3.594-3.594-3.594zm0 5.938A2.34 2.34 0 014.656 7c0-1.281 1.032-2.313 2.344-2.313A2.307 2.307 0 019.313 7C9.313 8.313 8.28 9.344 7 9.344zm4.563-6.063a.84.84 0 00-.844-.844.84.84 0 00-.844.844.84.84 0 00.844.844.84.84 0 00.844-.844zm2.374.844C13.876 3 13.626 2 12.813 1.187 12 .375 11 .125 9.874.063 8.719 0 5.25 0 4.094.063 2.969.126 2 .376 1.156 1.188.344 2 .094 3 .031 4.126-.03 5.281-.03 8.75.031 9.906.094 11.031.344 12 1.156 12.844c.844.812 1.813 1.062 2.938 1.125 1.156.062 4.625.062 5.781 0 1.125-.063 2.125-.313 2.938-1.125.812-.844 1.062-1.813 1.124-2.938.063-1.156.063-4.625 0-5.781zm-1.5 7c-.218.625-.718 1.094-1.312 1.344-.938.375-3.125.281-4.125.281-1.031 0-3.219.094-4.125-.281a2.37 2.37 0 01-1.344-1.344C1.156 10.219 1.25 8.031 1.25 7c0-1-.094-3.188.281-4.125a2.41 2.41 0 011.344-1.313c.906-.375 3.094-.28 4.125-.28 1 0 3.188-.095 4.125.28.594.22 1.063.72 1.313 1.313.374.938.28 3.125.28 4.125 0 1.031.095 3.219-.28 4.125z" fill="#707070"/></symbol><symbol fill="none" viewBox="0 0 16 16" id="pinterest" xmlns="http://www.w3.org/2000/svg"><path d="M15.5 8A7.749 7.749 0 007.75.25 7.749 7.749 0 000 8a7.714 7.714 0 004.906 7.219c-.062-.594-.125-1.531.032-2.219.156-.594.906-3.844.906-3.844S5.625 8.687 5.625 8c0-1.063.625-1.875 1.406-1.875.657 0 .969.5.969 1.094 0 .656-.438 1.656-.656 2.593-.157.75.406 1.376 1.156 1.376 1.375 0 2.438-1.438 2.438-3.532 0-1.875-1.344-3.156-3.22-3.156-2.218 0-3.5 1.656-3.5 3.344 0 .687.25 1.406.563 1.781.063.063.063.156.063.219-.063.25-.219.781-.219.875-.031.156-.125.187-.281.125-.969-.469-1.563-1.875-1.563-3.031 0-2.438 1.781-4.688 5.125-4.688 2.688 0 4.782 1.938 4.782 4.5 0 2.656-1.688 4.813-4.032 4.813-.781 0-1.531-.407-1.781-.907 0 0-.375 1.5-.469 1.844-.187.688-.656 1.531-.968 2.031.718.25 1.5.344 2.312.344A7.749 7.749 0 0015.5 8z" fill="#707070"/></symbol><symbol fill="none" viewBox="0 0 17 17" id="search-ico" xmlns="http://www.w3.org/2000/svg"><path fill-rule="evenodd" clip-rule="evenodd" d="M11.958 10.957l4.834 4.834a.708.708 0 11-1.001 1.001l-4.835-4.834a6.697 6.697 0 01-4.227 1.5A6.737 6.737 0 010 6.73C0 3.02 3.019 0 6.73 0c3.71 0 6.728 3.019 6.728 6.73 0 1.6-.564 3.07-1.5 4.226zM1.417 6.729a5.318 5.318 0 005.312 5.313 5.318 5.318 0 005.312-5.313A5.318 5.318 0 006.73 1.417a5.318 5.318 0 00-5.312 5.312z" fill="#5A5A5A"/></symbol><symbol fill="none" viewBox="0 0 16 14" id="twitter" xmlns="http://www.w3.org/2000/svg"><path d="M14.344 3.75a6.952 6.952 0 001.625-1.688 6.151 6.151 0 01-1.875.5A3.206 3.206 0 0015.53.75a6.93 6.93 0 01-2.062.813A3.282 3.282 0 0011.063.53 3.28 3.28 0 007.78 3.812c0 .25.032.5.094.75a9.52 9.52 0 01-6.781-3.437 3.192 3.192 0 00-.438 1.656c0 1.125.563 2.125 1.469 2.719-.531-.031-1.063-.156-1.5-.406v.031A3.285 3.285 0 003.25 8.344c-.25.062-.563.125-.844.125-.219 0-.406-.031-.625-.063a3.265 3.265 0 003.063 2.281A6.597 6.597 0 01.78 12.095c-.281 0-.531-.031-.781-.063 1.438.938 3.156 1.469 5.031 1.469 6.032 0 9.313-4.969 9.313-9.313V3.75z" fill="#5A5A5A"/></symbol><symbol fill="none" viewBox="0 0 80 80" id="video-play" xmlns="http://www.w3.org/2000/svg"><path fill-rule="evenodd" clip-rule="evenodd" d="M40 80c22.091 0 40-17.909 40-40S62.091 0 40 0 0 17.909 0 40s17.909 40 40 40z" fill="#363838" fill-opacity=".4"/><g filter="url(#ifilter0_d_5_290)"><path fill-rule="evenodd" clip-rule="evenodd" d="M58.5 39.634a1 1 0 010 1.732L32.25 56.522a1 1 0 01-1.5-.867v-30.31a1 1 0 011.5-.866L58.5 39.633z" fill="#fff" fill-opacity=".93"/></g><defs><filter id="ifilter0_d_5_290" x="26.75" y="21.343" width="36.25" height="40.314" filterUnits="userSpaceOnUse" color-interpolation-filters="sRGB"><feFlood flood-opacity="0" result="BackgroundImageFix"/><feColorMatrix in="SourceAlpha" values="0 0 0 0 0 0 0 0 0 0 0 0 0 0 0 0 0 0 127 0" result="hardAlpha"/><feOffset dy="1"/><feGaussianBlur stdDeviation="2"/><feColorMatrix values="0 0 0 0 0 0 0 0 0 0 0 0 0 0 0 0 0 0 0.852218 0"/><feBlend in2="BackgroundImageFix" result="effect1_dropShadow_5_290"/><feBlend in="SourceGraphic" in2="effect1_dropShadow_5_290" result="shape"/></filter></defs></symbol><symbol fill="none" viewBox="0 0 14 14" id="whatsapp" xmlns="http://www.w3.org/2000/svg"><path d="M11.875 2.063A6.826 6.826 0 006.969 0C3.156 0 .03 3.125.03 6.938c0 1.25.344 2.437.938 3.468L0 14l3.656-.938c1.031.532 2.156.844 3.313.844 3.843 0 7.031-3.125 7.031-6.937 0-1.875-.813-3.594-2.125-4.907zM6.969 12.719a5.78 5.78 0 01-2.938-.813l-.187-.125-2.188.594.594-2.125-.156-.219c-.563-.937-.875-2-.875-3.094 0-3.156 2.593-5.75 5.781-5.75 1.531 0 2.969.594 4.063 1.688 1.093 1.094 1.75 2.531 1.75 4.094 0 3.156-2.657 5.75-5.844 5.75zm3.187-4.313c-.187-.094-1.031-.5-1.187-.562-.156-.063-.281-.094-.406.093-.094.157-.438.563-.532.688-.125.094-.219.125-.375.031-1.031-.5-1.687-.906-2.375-2.062-.187-.313.188-.282.5-.938.063-.125.032-.218 0-.312-.031-.094-.406-.938-.531-1.282-.156-.343-.281-.312-.406-.312H4.53a.586.586 0 00-.468.219c-.157.187-.594.594-.594 1.437 0 .875.594 1.688.687 1.813.094.093 1.219 1.843 2.969 2.593 1.094.5 1.531.532 2.094.438.312-.031 1-.406 1.156-.813.156-.406.156-.75.094-.812-.031-.094-.156-.125-.313-.219z" fill="#707070"/></symbol><symbol fill="none" viewBox="0 0 18 12" id="youtube" xmlns="http://www.w3.org/2000/svg"><path d="M17.156 1.906a2.126 2.126 0 00-1.5-1.531C14.312 0 9 0 9 0S3.656 0 2.312.375a2.126 2.126 0 00-1.5 1.531C.438 3.22.438 6.031.438 6.031s0 2.782.376 4.125c.187.75.78 1.313 1.5 1.5C3.655 12 9 12 9 12s5.313 0 6.656-.344a2.084 2.084 0 001.5-1.5c.375-1.344.375-4.125.375-4.125s0-2.812-.375-4.125zM7.25 8.563V3.5l4.438 2.531L7.25 8.563z" fill="#707070"/></symbol></svg>